<?xml version="1.0" encoding="utf-8"?>
<!-- Generator: Adobe Illustrator 19.2.1, SVG Export Plug-In . SVG Version: 6.00 Build 0)  -->
<svg version="1.1" id="Layer_1" xmlns="http://www.w3.org/2000/svg" xmlns:xlink="http://www.w3.org/1999/xlink" x="0px" y="0px"
	 viewBox="0 0 295.2 345.1" style="enable-background:new 0 0 295.2 345.1;" xml:space="preserve">
<style type="text/css">
	.st0{fill:#36AD64;}
</style>
<title>Logo Black</title>
<path class="st0" d="M279,114c-16.8-9.4-37.9,2.9-41.2,5l-72.4,41.1c-12.2-9.7-30-7.7-39.7,4.6c-9.7,12.2-7.7,30,4.6,39.7
	c12.2,9.7,30,7.7,39.7-4.6c5-6.3,7.1-14.6,5.7-22.5l72.2-41l0.4-0.3c4.7-3,15.8-7.5,20.9-4.6c3.7,2.1,5.8,9.1,6,19.4h-0.1v90.6
	c0,8.5-4.5,16.3-11.8,20.5l-103.9,60c-7.3,4.2-16.3,4.2-23.7,0L31.9,262c-7.3-4.2-11.8-12-11.8-20.5V121.6c0-8.5,4.5-16.3,11.8-20.5
	l94-54.2c10.3,11.8,28.1,13,39.9,2.7s13-28.1,2.7-39.9c-10.3-11.8-28.1-13-39.9-2.7c-6,5.2-9.5,12.8-9.7,20.8l-97,56
	C8.4,91.5,0,105.9,0,121.6v119.9c0,15.6,8.3,30,21.8,37.8l103.9,60c13.5,7.8,30.2,7.8,43.7,0l103.9-60c13.5-7.8,21.8-22.2,21.8-37.8
	v-87.2h0.1C295.6,133.9,290.2,120.3,279,114z"/>
</svg>
